<?xml version="1.0" encoding="utf-8"?>
<!-- Generator: Adobe Illustrator 16.2.0, SVG Export Plug-In . SVG Version: 6.00 Build 0)  -->
<!DOCTYPE svg PUBLIC "-//W3C//DTD SVG 1.1//EN" "http://www.w3.org/Graphics/SVG/1.1/DTD/svg11.dtd">
<svg version="1.1" id="Layer_1" xmlns="http://www.w3.org/2000/svg" xmlns:xlink="http://www.w3.org/1999/xlink" x="0px" y="0px"
	 width="821.429px" height="136.735px" viewBox="0 0 821.429 136.735" enable-background="new 0 0 821.429 136.735"
	 xml:space="preserve">
<g>
	<path fill="#6ABD45" d="M34.732,13.738c0-1.624,0.854-2.502,2.562-2.634h19.378c2.365,0,3.547,1.142,3.547,3.424v90.226
		c0,4.347-0.865,8.418-2.595,12.216c-1.729,3.797-4.062,7.113-6.995,9.945c-2.935,2.832-6.34,5.06-10.215,6.685
		c-3.875,1.624-7.965,2.437-12.267,2.437c-2.547,0-5.049-0.286-7.508-0.856c-2.459-0.571-4.797-1.416-7.014-2.536
		c-2.217-1.12-4.281-2.502-6.191-4.149c-1.91-1.646-3.589-3.546-5.038-5.697c-0.131-0.044-0.197-0.395-0.197-1.054
		c0-1.142,0.352-1.976,1.054-2.502l11.459-10.735c0.351-0.307,0.725-0.56,1.12-0.757c0.396-0.198,0.768-0.296,1.12-0.296
		c0.659,0,1.284,0.242,1.877,0.724c0.593,0.484,1.251,1.021,1.976,1.614c0.725,0.593,1.569,1.13,2.536,1.613
		c0.965,0.483,2.129,0.725,3.491,0.725c1.009,0,1.997-0.198,2.963-0.593c0.965-0.395,1.811-0.922,2.536-1.581
		s1.306-1.438,1.745-2.338c0.438-0.899,0.659-1.854,0.659-2.865V13.738z"/>
	<path fill="#6ABD45" d="M77.209,60.102c0-4.653,0.593-9.121,1.779-13.402c1.186-4.281,2.877-8.298,5.074-12.052
		c2.196-3.754,4.821-7.167,7.875-10.241c3.053-3.073,6.447-5.697,10.181-7.87s7.743-3.863,12.027-5.071
		c4.284-1.207,8.754-1.812,13.411-1.812c4.612,0,9.072,0.604,13.377,1.812c4.306,1.208,8.326,2.897,12.06,5.071
		s7.14,4.797,10.215,7.87c3.075,3.074,5.7,6.487,7.875,10.241c2.174,3.754,3.866,7.771,5.074,12.052s1.812,8.749,1.812,13.402
		c0,4.654-0.604,9.122-1.812,13.402s-2.9,8.276-5.074,11.986c-2.175,3.711-4.8,7.091-7.875,10.142
		c-3.076,3.052-6.481,5.675-10.215,7.87c-3.734,2.196-7.754,3.886-12.06,5.071c-4.306,1.185-8.765,1.778-13.377,1.778
		c-4.657,0-9.127-0.593-13.411-1.778c-4.284-1.186-8.293-2.875-12.027-5.071c-3.734-2.195-7.128-4.818-10.181-7.87
		c-3.054-3.051-5.679-6.431-7.875-10.142c-2.197-3.709-3.889-7.705-5.074-11.986C77.802,69.224,77.209,64.756,77.209,60.102z
		 M102.696,60.036c0,3.645,0.613,7.047,1.841,10.208s2.949,5.917,5.164,8.265c2.215,2.35,4.834,4.193,7.86,5.532
		c3.025,1.34,6.357,2.009,9.997,2.009c3.639,0,6.982-0.669,10.03-2.009c3.047-1.339,5.678-3.183,7.893-5.532
		c2.214-2.348,3.935-5.104,5.163-8.265c1.228-3.161,1.842-6.563,1.842-10.208c0-3.6-0.614-6.991-1.842-10.175
		c-1.228-3.183-2.948-5.96-5.163-8.331c-2.215-2.371-4.846-4.236-7.893-5.598c-3.048-1.36-6.391-2.042-10.03-2.042
		c-3.64,0-6.972,0.681-9.997,2.042c-3.025,1.362-5.645,3.227-7.86,5.598c-2.214,2.371-3.936,5.148-5.164,8.331
		C103.31,53.045,102.696,56.437,102.696,60.036z"/>
	<path fill="#6ABD45" d="M193.974,14.133c0-0.922,0.252-1.657,0.757-2.206c0.504-0.549,1.219-0.823,2.141-0.823h43.729
		c3.863,0,7.508,0.736,10.933,2.206c3.424,1.472,6.421,3.491,8.989,6.059c2.569,2.568,4.599,5.576,6.092,9.022
		c1.492,3.447,2.239,7.146,2.239,11.097c0,3.293-0.517,6.355-1.547,9.187c-1.032,2.832-2.492,5.368-4.38,7.606
		c3.162,2.898,5.664,6.345,7.508,10.34c1.844,3.996,2.766,8.232,2.766,12.71c0,3.996-0.769,7.783-2.305,11.361
		c-1.538,3.579-3.612,6.717-6.224,9.417c-2.613,2.7-5.664,4.84-9.154,6.421c-3.491,1.581-7.168,2.371-11.031,2.371h-47.615
		c-0.879,0-1.581-0.23-2.107-0.691s-0.791-1.174-0.791-2.141V14.133z M243.565,40.082c0-1.317-0.243-2.546-0.727-3.688
		c-0.485-1.142-1.167-2.151-2.048-3.03c-0.881-0.877-1.937-1.569-3.169-2.074c-1.233-0.504-2.576-0.758-4.028-0.758h-14.132v19.099
		h13.934c1.496,0,2.872-0.23,4.127-0.691c1.254-0.461,2.321-1.12,3.202-1.976c0.881-0.856,1.574-1.866,2.081-3.029
		C243.312,42.771,243.565,41.487,243.565,40.082z M247.056,78.345c0-1.317-0.253-2.634-0.759-3.952
		c-0.506-1.317-1.211-2.491-2.113-3.523c-0.902-1.031-1.981-1.877-3.235-2.536s-2.607-0.988-4.06-0.988h-17.427v21.997h17.427
		c1.452,0,2.794-0.307,4.027-0.922c1.233-0.614,2.311-1.438,3.235-2.47c0.924-1.031,1.639-2.206,2.146-3.523
		C246.803,81.111,247.056,79.75,247.056,78.345z"/>
	<path fill="#FFFFFF" d="M287.425,14.133c0-0.922,0.252-1.646,0.757-2.173c0.504-0.527,1.108-0.812,1.811-0.856h63.026
		c1.009,0,1.767,0.285,2.272,0.854c0.504,0.569,0.757,1.334,0.757,2.298v16.285c0,0.745-0.264,1.456-0.791,2.134
		c-0.527,0.679-1.295,1.018-2.305,1.018h-40.042v20.416h29.57c0.833,0,1.537,0.23,2.107,0.692c0.57,0.461,0.856,1.197,0.856,2.206
		v15.74c0,0.747-0.253,1.46-0.757,2.14c-0.505,0.681-1.197,1.021-2.075,1.021h-29.702v30.163c0,1.888-1.011,2.832-3.03,2.832
		h-20.086c-1.581-0.219-2.371-1.141-2.371-2.766V14.133z"/>
	<path fill="#FFFFFF" d="M367.771,60.102c0-4.653,0.593-9.121,1.779-13.402c1.186-4.281,2.877-8.298,5.074-12.052
		c2.196-3.754,4.821-7.167,7.875-10.241c3.053-3.073,6.447-5.697,10.181-7.87s7.743-3.863,12.027-5.071
		c4.284-1.207,8.754-1.812,13.411-1.812c4.613,0,9.072,0.604,13.377,1.812c4.307,1.208,8.326,2.897,12.061,5.071
		s7.141,4.797,10.215,7.87c3.076,3.074,5.701,6.487,7.877,10.241c2.174,3.754,3.865,7.771,5.074,12.052
		c1.207,4.281,1.811,8.749,1.811,13.402c0,4.654-0.604,9.122-1.811,13.402c-1.209,4.281-2.9,8.276-5.074,11.986
		c-2.176,3.711-4.801,7.091-7.877,10.142c-3.074,3.052-6.48,5.675-10.215,7.87c-3.734,2.196-7.754,3.886-12.061,5.071
		c-4.305,1.185-8.764,1.778-13.377,1.778c-4.657,0-9.127-0.593-13.411-1.778c-4.284-1.186-8.293-2.875-12.027-5.071
		c-3.734-2.195-7.128-4.818-10.181-7.87c-3.054-3.051-5.679-6.431-7.875-10.142c-2.197-3.709-3.889-7.705-5.074-11.986
		C368.364,69.224,367.771,64.756,367.771,60.102z M393.258,60.036c0,3.645,0.613,7.047,1.841,10.208s2.949,5.917,5.164,8.265
		c2.215,2.35,4.834,4.193,7.86,5.532c3.025,1.34,6.357,2.009,9.997,2.009c3.639,0,6.982-0.669,10.031-2.009
		c3.047-1.339,5.678-3.183,7.893-5.532c2.213-2.348,3.934-5.104,5.162-8.265c1.227-3.161,1.842-6.563,1.842-10.208
		c0-3.6-0.615-6.991-1.842-10.175c-1.229-3.183-2.949-5.96-5.162-8.331c-2.215-2.371-4.846-4.236-7.893-5.598
		c-3.049-1.36-6.393-2.042-10.031-2.042c-3.639,0-6.971,0.681-9.997,2.042c-3.025,1.362-5.645,3.227-7.86,5.598
		c-2.214,2.371-3.936,5.148-5.164,8.331C393.872,53.045,393.258,56.437,393.258,60.036z"/>
	<path fill="#FFFFFF" d="M509.76,69.899c0,3.252,0.451,6.01,1.353,8.272c0.901,2.264,2.09,4.109,3.563,5.537s3.189,2.472,5.148,3.13
		c1.957,0.66,3.992,0.989,6.104,0.989c2.2,0,4.279-0.384,6.236-1.153c1.957-0.769,3.674-1.911,5.147-3.428
		c1.473-1.516,2.639-3.394,3.497-5.635s1.287-4.812,1.287-7.713V14.004c0-0.791,0.274-1.472,0.823-2.043
		c0.549-0.571,1.284-0.857,2.207-0.857h19.23c1.009,0,1.8,0.296,2.37,0.889c0.57,0.592,0.856,1.262,0.856,2.008V69.52
		c0,7.684-1.131,14.138-3.392,19.362c-2.262,5.226-5.302,9.429-9.121,12.612c-3.82,3.184-8.244,5.466-13.271,6.85
		c-5.028,1.383-10.307,2.074-15.839,2.074s-10.823-0.714-15.872-2.14s-9.483-3.754-13.303-6.981
		c-3.82-3.227-6.86-7.442-9.122-12.645c-2.262-5.203-3.392-11.58-3.392-19.131V14.001c0-0.746,0.252-1.416,0.756-2.008
		c0.503-0.593,1.127-0.889,1.872-0.889h19.706c0.657,0,1.347,0.274,2.068,0.824c0.723,0.549,1.085,1.241,1.085,2.076V69.899z"/>
	<path fill="#FFFFFF" d="M586.944,14.001c0-0.79,0.241-1.47,0.725-2.042c0.482-0.57,1.207-0.856,2.174-0.856h21.535
		c0.614,0,1.251,0.154,1.91,0.461c0.658,0.308,1.229,0.834,1.712,1.581c5.575,9.001,11.107,17.87,16.597,26.606
		c5.487,8.738,11.041,17.607,16.662,26.607V13.606c0.175-0.79,0.526-1.405,1.054-1.844c0.526-0.438,1.141-0.659,1.844-0.659h18.77
		c0.922,0,1.689,0.253,2.305,0.757c0.614,0.505,0.922,1.218,0.922,2.14v92.333c0,0.879-0.263,1.526-0.79,1.943
		c-0.526,0.417-1.251,0.625-2.173,0.625h-21.009c-0.571,0-1.077-0.198-1.515-0.593c-0.439-0.395-0.9-0.922-1.384-1.581
		c-5.839-9.658-11.613-19.208-17.32-28.648c-5.708-9.439-11.504-18.989-17.387-28.648v56.572c0,0.966-0.22,1.691-0.658,2.173
		c-0.439,0.484-1.229,0.725-2.371,0.725h-18.703c-1.011,0-1.745-0.274-2.207-0.823c-0.461-0.548-0.691-1.218-0.691-2.009V14.001z"/>
	<path fill="#FFFFFF" d="M779.313,60.102c0,4.654-0.592,9.078-1.777,13.271c-1.186,4.193-2.877,8.101-5.071,11.723
		c-2.196,3.622-4.819,6.905-7.87,9.846c-3.052,2.942-6.433,5.445-10.143,7.508c-3.71,2.064-7.716,3.655-12.019,4.775
		c-4.304,1.12-8.759,1.679-13.369,1.679h-32.468c-0.791,0-1.493-0.175-2.107-0.527c-0.615-0.351-0.922-1.097-0.922-2.239V14.133
		c0-0.922,0.252-1.668,0.757-2.239c0.504-0.57,1.262-0.856,2.272-0.856h32.468c4.61,0,9.056,0.571,13.336,1.712
		c4.281,1.142,8.275,2.766,11.986,4.874c3.71,2.107,7.102,4.632,10.175,7.573c3.073,2.942,5.697,6.235,7.87,9.879
		c2.174,3.645,3.863,7.574,5.071,11.789C778.71,51.08,779.313,55.492,779.313,60.102z M719.054,34.681v50.645h5.532
		c1.01,0,1.997-0.033,2.964-0.099c0.965-0.066,1.932-0.142,2.897-0.23c3.293-0.264,6.365-1.064,9.221-2.404
		c2.853-1.339,5.345-3.096,7.475-5.269c2.129-2.173,3.797-4.73,5.005-7.673c1.207-2.941,1.812-6.146,1.812-9.615
		c0-3.688-0.691-7.08-2.075-10.175c-1.383-3.095-3.26-5.773-5.631-8.035c-2.37-2.261-5.147-4.018-8.331-5.269
		c-3.184-1.251-6.575-1.877-10.175-1.877H719.054z"/>
	<path fill="#6ABD45" d="M796.634,3.398c0-1.932,1.076-2.897,3.228-2.897h17.123c1.932,0,2.897,0.966,2.897,2.897v70.995
		c0,0.835-0.241,1.526-0.725,2.075c-0.483,0.549-1.208,0.823-2.173,0.823h-17.123c-0.658,0-1.361-0.263-2.107-0.79
		c-0.747-0.527-1.12-1.229-1.12-2.108V3.398z M796.634,90.001c0-0.877,0.253-1.581,0.758-2.107c0.504-0.527,1.219-0.79,2.141-0.79
		h17.387c0.745,0,1.438,0.263,2.074,0.79c0.636,0.527,0.955,1.23,0.955,2.107v15.938c0,0.79-0.264,1.493-0.791,2.107
		c-0.526,0.615-1.273,0.922-2.238,0.922h-17.387c-1.933,0-2.898-1.01-2.898-3.029V90.001z"/>
</g>
</svg>
